<svg xmlns="http://www.w3.org/2000/svg" width="250" height="250" fill="none" viewBox="0 0 250 250"><g clip-path="url(#clip0_1_704)"><path fill="#191919" d="M186.864 164.709C183.136 160.57 177.075 160.212 171.973 161.464C167.053 162.673 162.642 165.482 159.061 169.017C155.193 172.838 152.339 177.499 150.232 182.488C147.903 188.004 146.455 193.837 145.192 199.674C143.809 206.055 142.513 212.455 141.18 218.847C140.845 220.453 140.51 222.059 140.175 223.666C140.092 224.062 140.701 224.232 140.783 223.833C142.124 217.408 143.464 210.982 144.805 204.558C146.01 198.778 147.203 192.975 149.073 187.365C150.824 182.109 153.194 176.982 156.665 172.63C159.768 168.74 163.679 165.416 168.254 163.397C170.51 162.402 172.932 161.746 175.39 161.528C178.148 161.282 181.051 161.58 183.528 162.893C187.914 165.219 189.921 170.382 189.794 175.147C189.637 181.004 186.73 186.45 183.789 191.361C180.968 196.075 177.702 200.521 174.054 204.627C170.393 208.745 166.352 212.528 161.988 215.893C157.571 219.299 152.693 222.637 147.135 223.769C145.79 224.043 144.419 224.163 143.046 224.122C142.641 224.11 142.641 224.741 143.046 224.753C148.899 224.929 154.311 222.113 158.996 218.866C163.618 215.662 167.92 211.977 171.835 207.942C175.735 203.924 179.258 199.537 182.336 194.862C183.899 192.485 185.362 190.036 186.673 187.512C188.054 184.853 189.257 182.066 189.911 179.132C191.015 174.189 190.363 168.596 186.864 164.709Z"/><path fill="#191919" d="M153.317 210.109C153.362 210.119 153.408 210.116 153.455 210.102C155.669 209.394 157.884 208.686 160.099 207.977C162.314 207.27 164.528 206.561 166.743 205.852C167.989 205.454 169.235 205.055 170.481 204.656C170.639 204.607 170.756 204.436 170.702 204.268C170.651 204.111 170.482 203.995 170.314 204.048C168.099 204.757 165.884 205.464 163.67 206.173C161.455 206.88 159.24 207.589 157.027 208.298C155.993 208.628 154.958 208.958 153.924 209.29C155.093 207.701 156.241 206.099 157.365 204.477C159.806 200.957 162.138 197.361 164.357 193.696C164.503 193.455 164.647 193.214 164.792 192.973C165.783 192.57 166.77 192.156 167.751 191.731C168.853 191.256 169.948 190.767 171.037 190.265C172.126 189.763 173.209 189.248 174.286 188.719C175.362 188.191 176.433 187.65 177.497 187.097C178.561 186.542 179.617 185.975 180.667 185.396C180.799 185.323 180.931 185.25 181.063 185.177C181.207 185.097 181.267 184.887 181.176 184.745C181.082 184.599 180.898 184.546 180.743 184.632C179.701 185.212 178.65 185.779 177.594 186.334C176.531 186.892 175.463 187.436 174.388 187.967C173.318 188.497 172.241 189.013 171.158 189.517C170.077 190.019 168.988 190.51 167.894 190.987C167.018 191.368 166.19 191.72 165.328 192.076C167.201 188.919 168.991 185.713 170.695 182.461C170.781 182.297 170.865 182.131 170.951 181.967C170.979 181.933 170.998 181.895 171.01 181.852C172.88 178.254 174.645 174.601 176.3 170.898C176.519 170.409 176.735 169.919 176.95 169.429C177.111 169.061 176.568 168.739 176.405 169.11C174.687 173.035 172.847 176.906 170.889 180.717C170.865 180.765 170.839 180.813 170.814 180.861C170.556 179.851 170.253 178.852 169.903 177.869C169.777 177.516 169.646 177.166 169.51 176.817C169.449 176.664 169.295 176.54 169.122 176.596C168.973 176.645 168.836 176.82 168.901 176.984C169.385 178.218 169.799 179.48 170.137 180.76C170.219 181.076 170.299 181.394 170.373 181.712C168.566 185.18 166.663 188.598 164.664 191.959C164.562 192.131 164.457 192.302 164.355 192.474C164.31 192.492 164.265 192.511 164.219 192.528C164.067 192.591 163.942 192.742 163.999 192.918C164.008 192.945 164.022 192.973 164.04 192.999C162.285 195.911 160.46 198.779 158.565 201.601C158.513 200.049 158.493 198.496 158.506 196.943C158.521 195.109 158.581 193.274 158.686 191.442C158.745 190.411 158.819 189.38 158.907 188.35C158.921 188.185 158.751 188.027 158.591 188.034C158.408 188.042 158.29 188.173 158.276 188.35C158.12 190.178 158.009 192.01 157.943 193.843C157.877 195.677 157.857 197.512 157.881 199.346C157.895 200.38 157.922 201.413 157.964 202.445C157.964 202.458 157.968 202.47 157.969 202.482C157.898 202.586 157.829 202.69 157.758 202.795C155.342 206.339 152.817 209.81 150.185 213.198C147.556 216.58 144.822 219.882 141.988 223.095C141.644 223.484 141.3 223.872 140.953 224.258C140.683 224.56 141.128 225.009 141.4 224.705C144.268 221.501 147.037 218.209 149.7 214.832C150.929 213.276 152.134 211.7 153.317 210.109Z"/><path fill="#191919" d="M50.1765 132.644C44.9046 134.442 42.1885 139.873 41.3324 145.055C40.5069 150.054 41.3529 155.215 43.1948 159.898C45.1846 164.957 48.346 169.416 52.1032 173.317C56.2574 177.628 61.0496 181.255 65.9185 184.715C71.2406 188.496 76.6144 192.206 81.9651 195.947C83.3099 196.887 84.6547 197.827 85.9995 198.768C86.3314 199 86.7267 198.508 86.3934 198.274C81.014 194.513 75.6347 190.753 70.2553 186.991C65.4167 183.609 60.5513 180.228 56.1299 176.302C51.9868 172.623 48.2075 168.426 45.5724 163.522C43.218 159.139 41.7004 154.235 41.6454 149.236C41.6183 146.77 41.9688 144.285 42.7354 141.94C43.5957 139.307 45.0114 136.755 47.1936 134.995C51.0575 131.879 56.593 132.067 60.9242 134.058C66.2467 136.508 70.109 141.323 73.4676 145.96C76.6901 150.409 79.4919 155.159 81.8306 160.13C84.176 165.116 86.0636 170.32 87.4391 175.655C88.8316 181.057 89.9808 186.855 88.8337 192.41C88.556 193.754 88.1277 195.062 87.5495 196.307C87.3784 196.676 87.9587 196.924 88.1297 196.556C90.5946 191.244 90.1353 185.161 88.9941 179.577C87.8682 174.067 86.1725 168.662 84.005 163.473C81.8465 158.308 79.2002 153.343 76.1125 148.672C74.5441 146.301 72.8672 143.993 71.0629 141.793C69.1621 139.477 67.0736 137.274 64.6341 135.518C60.5242 132.558 55.1269 130.957 50.1765 132.644Z"/><path fill="#191919" d="M78.7029 181.398C78.7282 181.36 78.7454 181.316 78.75 181.268C78.9705 178.953 79.1911 176.638 79.4116 174.323C79.632 172.009 79.8525 169.694 80.0731 167.379C80.1971 166.078 80.3213 164.774 80.4454 163.471C80.4611 163.307 80.3499 163.132 80.1752 163.116C80.0106 163.101 79.8365 163.211 79.8198 163.386C79.5992 165.701 79.3787 168.015 79.1583 170.33C78.9378 172.645 78.7172 174.96 78.4967 177.274C78.3938 178.355 78.2908 179.435 78.1878 180.517C77.1883 178.817 76.1659 177.131 75.1183 175.46C72.8426 171.83 70.4547 168.27 67.9593 164.787C67.7955 164.56 67.6299 164.332 67.4652 164.105C67.484 163.034 67.4923 161.964 67.4889 160.895C67.4849 159.695 67.4665 158.496 67.4336 157.298C67.4008 156.098 67.3534 154.9 67.2916 153.702C67.2298 152.504 67.1535 151.308 67.0628 150.111C66.9721 148.915 66.867 147.721 66.7475 146.527C66.7325 146.377 66.7173 146.228 66.7018 146.078C66.6848 145.914 66.5149 145.776 66.3493 145.804C66.1779 145.834 66.0572 145.981 66.0754 146.157C66.1978 147.345 66.3062 148.533 66.4003 149.723C66.4946 150.919 66.5747 152.115 66.6402 153.313C66.7055 154.504 66.7564 155.697 66.7931 156.891C66.8297 158.083 66.852 159.278 66.86 160.471C66.8662 161.426 66.8636 162.326 66.8517 163.259C64.6865 160.294 62.4438 157.386 60.1246 154.541C60.0072 154.397 59.8886 154.254 59.7709 154.11C59.7511 154.072 59.7233 154.038 59.6895 154.011C57.1169 150.876 54.4536 147.815 51.701 144.836C51.3375 144.443 50.9724 144.052 50.6059 143.662C50.3307 143.368 49.821 143.741 50.0986 144.037C53.0301 147.161 55.8652 150.375 58.5975 153.675C58.632 153.717 58.6664 153.76 58.7009 153.801C57.6704 153.641 56.6329 153.526 55.592 153.461C55.2181 153.438 54.8439 153.42 54.4695 153.408C54.305 153.404 54.1308 153.497 54.1141 153.678C54.0997 153.834 54.2075 154.029 54.3842 154.035C55.7087 154.075 57.0306 154.191 58.3417 154.385C58.6651 154.432 58.9876 154.485 59.3096 154.542C61.7869 157.568 64.1797 160.662 66.4825 163.822C66.6005 163.984 66.7171 164.147 66.8346 164.31C66.8337 164.358 66.8328 164.406 66.8319 164.455C66.8285 164.62 66.9187 164.793 67.1021 164.811C67.1314 164.813 67.1625 164.812 67.1935 164.806C69.1792 167.565 71.0976 170.371 72.9459 173.224C71.4989 172.66 70.0634 172.068 68.6409 171.444C66.9603 170.709 65.2978 169.931 63.6554 169.114C62.7301 168.654 61.8114 168.18 60.8991 167.695C60.753 167.618 60.5413 167.711 60.4848 167.861C60.4203 168.033 60.4941 168.192 60.6507 168.276C62.2702 169.138 63.9104 169.961 65.5701 170.743C67.2297 171.525 68.9085 172.266 70.6044 172.966C71.5598 173.36 72.5206 173.741 73.4864 174.108C73.4977 174.113 73.5096 174.116 73.5213 174.118C73.5893 174.224 73.6582 174.33 73.726 174.436C76.0337 178.052 78.2307 181.74 80.3086 185.492C82.3838 189.24 84.3428 193.053 86.1811 196.922C86.404 197.391 86.625 197.862 86.8443 198.332C87.0154 198.699 87.6024 198.467 87.4303 198.098C85.6135 194.199 83.6764 190.358 81.6208 186.581C80.673 184.839 79.6995 183.111 78.7029 181.398Z"/><path fill="#0B979D" d="M117.881 224.841C125.807 220.503 131.65 212.534 133.406 203.671C134.451 198.399 133.901 192.397 130.208 188.493C126.514 184.589 119.101 184.235 116.228 188.778C119.836 179.559 123.172 169.746 121.744 159.951C120.316 150.156 112.58 140.578 102.683 140.443C93.4547 140.317 85.7466 148.396 83.1602 157.255C80.5738 166.114 81.9279 175.584 83.3014 184.71C79.0475 179.677 73.5504 175.703 67.4379 173.242C65.0254 172.27 62.2626 171.909 59.9941 173.182C54.418 176.309 54.8549 188.418 68.0176 203.078C64.8096 199.403 57.8817 202.075 56.744 206.818C55.6064 211.563 58.9283 216.468 63.2324 218.763C67.5364 221.058 97.1832 224.818 97.1832 224.818L117.881 224.841V224.841Z"/><path fill="#F4F5F6" d="M107.986 222.89C105.626 218.573 103.645 214.055 102.062 209.398C100.486 204.761 99.2982 199.992 98.5045 195.159C97.7069 190.305 97.3115 185.383 97.316 180.463C97.3202 175.547 97.7241 170.628 98.5399 165.779C99.3489 160.97 100.559 156.227 102.171 151.625C102.374 151.044 102.585 150.466 102.801 149.889C102.909 149.598 102.442 149.472 102.334 149.761C100.601 154.387 99.2757 159.161 98.3642 164.016C97.4567 168.851 96.9528 173.763 96.8514 178.68C96.7495 183.623 97.0561 188.571 97.7574 193.464C98.4585 198.353 99.56 203.186 101.058 207.893C102.549 212.578 104.433 217.142 106.699 221.505C106.984 222.051 107.274 222.594 107.569 223.134C107.718 223.407 108.136 223.163 107.986 222.89Z"/><path fill="#F4F5F6" d="M104.139 222.322C102.263 220.024 100.332 217.77 98.3488 215.565C96.3646 213.358 94.3282 211.199 92.2416 209.091C90.1619 206.988 88.0324 204.936 85.8552 202.935C83.6781 200.933 81.4535 198.984 79.1838 197.088C76.9133 195.193 74.5975 193.351 72.2399 191.564C71.9433 191.339 71.646 191.116 71.3482 190.892C71.2428 190.814 71.079 190.876 71.0173 190.979C70.9438 191.102 71 191.233 71.104 191.31C73.4705 193.082 75.7944 194.91 78.0735 196.792C80.3533 198.675 82.5883 200.613 84.776 202.602C86.9638 204.592 89.1044 206.633 91.1953 208.724C93.2793 210.809 95.314 212.942 97.2971 215.121C99.2863 217.309 101.224 219.545 103.107 221.825C103.338 222.104 103.568 222.384 103.797 222.664C103.881 222.767 104.053 222.749 104.139 222.664C104.241 222.565 104.222 222.422 104.139 222.322Z"/><path fill="#F4F5F6" d="M112.788 222.879C112.84 220.49 113.063 218.105 113.459 215.748C113.853 213.407 114.411 211.093 115.124 208.829C115.844 206.548 116.72 204.318 117.748 202.16C118.774 200.008 119.949 197.927 121.263 195.939C122.575 193.952 124.029 192.059 125.613 190.281C125.81 190.061 126.008 189.843 126.207 189.626C126.418 189.399 126.078 189.056 125.865 189.284C124.229 191.058 122.72 192.95 121.355 194.939C119.994 196.919 118.776 198.996 117.706 201.146C116.632 203.307 115.706 205.544 114.939 207.833C114.177 210.111 113.574 212.442 113.137 214.804C112.699 217.178 112.426 219.583 112.331 221.995C112.32 222.289 112.311 222.584 112.305 222.879C112.298 223.19 112.781 223.19 112.788 222.879Z"/><path fill="#F4F5F6" d="M104.31 215.388C104.053 213.631 103.959 211.849 104.014 210.074C104.069 208.291 104.277 206.515 104.634 204.766C104.989 203.017 105.49 201.298 106.129 199.63C106.767 197.964 107.548 196.353 108.457 194.818C109.363 193.289 110.398 191.837 111.557 190.49C111.701 190.323 111.846 190.158 111.994 189.994C112.201 189.763 111.86 189.42 111.652 189.652C110.436 191.005 109.341 192.466 108.381 194.011C107.424 195.55 106.604 197.173 105.92 198.851C105.237 200.522 104.695 202.252 104.3 204.014C103.902 205.789 103.652 207.599 103.558 209.416C103.464 211.225 103.526 213.043 103.751 214.84C103.78 215.066 103.81 215.291 103.843 215.517C103.862 215.646 104.026 215.717 104.141 215.685C104.28 215.648 104.329 215.518 104.31 215.388Z"/><path fill="#F4F5F6" d="M99.6037 201.352C99.1261 199.937 98.5329 198.561 97.8336 197.241C97.1381 195.931 96.3382 194.676 95.446 193.491C94.5503 192.301 93.5665 191.178 92.4989 190.14C91.4283 189.099 90.2755 188.142 89.056 187.278C87.8494 186.426 86.5747 185.669 85.2459 185.021C85.0791 184.94 84.9115 184.86 84.7431 184.782C84.6246 184.727 84.4825 184.749 84.4122 184.869C84.3511 184.974 84.3799 185.145 84.4989 185.2C85.8362 185.818 87.1219 186.546 88.3419 187.371C89.5493 188.189 90.6896 189.101 91.7543 190.098C92.8266 191.102 93.8214 192.188 94.7272 193.343C95.6292 194.493 96.4392 195.718 97.15 196.997C97.8595 198.272 98.4669 199.598 98.9598 200.97C99.0212 201.14 99.0801 201.309 99.1379 201.48C99.1792 201.604 99.3042 201.686 99.4351 201.65C99.5566 201.616 99.6462 201.477 99.6037 201.352Z"/><path fill="#F4F5F6" d="M96.6387 213.964C95.0748 213.353 93.4954 212.782 91.9027 212.251C90.3098 211.719 88.7036 211.228 87.0861 210.778C85.4686 210.329 83.8398 209.918 82.2016 209.55C80.5635 209.182 78.9161 208.856 77.2615 208.57C75.6088 208.285 73.9488 208.042 72.284 207.84C72.0738 207.814 71.8634 207.79 71.653 207.765C71.523 207.751 71.4111 207.887 71.4111 208.007C71.4111 208.15 71.5226 208.234 71.653 208.248C73.3073 208.439 74.9565 208.672 76.5992 208.946C78.2476 209.221 79.889 209.537 81.5215 209.895C83.154 210.252 84.7777 210.651 86.3902 211.089C88.0028 211.528 89.6044 212.007 91.193 212.526C92.7815 213.045 94.357 213.602 95.9175 214.201C96.1154 214.277 96.3129 214.354 96.5102 214.43C96.6319 214.477 96.7756 214.378 96.8077 214.262C96.8453 214.125 96.7609 214.012 96.6387 213.964Z"/><path fill="#F4F5F6" d="M86.3838 203.387C86.2985 200.859 86.2131 198.332 86.1277 195.803C86.1036 195.086 86.0794 194.37 86.0552 193.653C86.0447 193.343 85.561 193.342 85.5715 193.653C85.6568 196.182 85.7422 198.71 85.8275 201.237C85.8517 201.954 85.8758 202.671 85.9001 203.387C85.9105 203.697 86.3943 203.7 86.3838 203.387Z"/><path fill="#F4F5F6" d="M97.9575 181.014C98.6922 179.785 99.4977 178.598 100.368 177.462C101.23 176.338 102.161 175.265 103.144 174.246C104.136 173.22 105.184 172.249 106.284 171.341C107.381 170.435 108.53 169.593 109.723 168.819C110.924 168.038 112.169 167.327 113.452 166.691C113.608 166.613 113.764 166.538 113.92 166.462C114.038 166.406 114.069 166.238 114.006 166.132C113.937 166.012 113.794 165.988 113.676 166.045C112.38 166.666 111.12 167.362 109.904 168.129C108.68 168.901 107.5 169.744 106.372 170.649C105.25 171.549 104.179 172.511 103.166 173.531C102.153 174.551 101.198 175.629 100.308 176.758C99.4116 177.894 98.5778 179.078 97.8184 180.311C97.7242 180.463 97.6313 180.616 97.5396 180.769C97.3794 181.037 97.7975 181.281 97.9575 181.014Z"/><path fill="#F4F5F6" d="M97.7753 171.478C96.6093 170.012 95.6655 168.36 94.981 166.617C94.2922 164.864 93.8501 163.01 93.6912 161.132C93.6018 160.076 93.5999 159.013 93.6868 157.956C93.6976 157.826 93.568 157.715 93.4449 157.715C93.3052 157.715 93.2139 157.826 93.2032 157.956C93.0451 159.878 93.1844 161.821 93.5935 163.704C94.0023 165.586 94.6865 167.412 95.616 169.1C96.1434 170.056 96.7532 170.965 97.4333 171.82C97.5147 171.923 97.6903 171.905 97.7753 171.82C97.8765 171.719 97.8564 171.581 97.7753 171.478Z"/><path fill="#0B979D" d="M201.517 224.499C203.71 223.326 205.97 220.264 207.575 218.17C209.181 216.076 209.968 212.863 208.793 210.413C207.366 207.431 203.911 206.874 200.975 206.969C198.039 207.065 194.763 207.343 192.526 205.132C190.291 202.922 190.005 199.129 189.515 195.767C189.027 192.406 187.698 188.562 184.828 187.853C182.385 187.25 180.067 189.26 178.305 191.314C173.602 196.793 170.006 203.547 167.886 210.881C164.407 208.41 159.592 206.056 156.641 209.324C154.756 211.411 154.717 215.032 155.841 217.762C156.966 220.491 159.004 222.536 160.987 224.499H201.517Z"/><path fill="#F4F5F6" d="M182.025 221.763C181.914 220.201 181.804 218.64 181.734 217.075C181.663 215.514 181.635 213.949 181.688 212.386C181.736 210.957 181.853 209.53 182.075 208.122C182.286 206.775 182.587 205.447 182.998 204.164C183.405 202.898 183.926 201.678 184.57 200.551C184.65 200.409 184.733 200.27 184.817 200.132C184.882 200.025 184.833 199.863 184.741 199.801C184.637 199.73 184.522 199.781 184.457 199.888C183.772 201.013 183.218 202.236 182.772 203.512C182.326 204.79 181.996 206.122 181.759 207.475C181.512 208.88 181.368 210.31 181.298 211.742C181.221 213.31 181.233 214.883 181.292 216.451C181.351 218.03 181.457 219.607 181.568 221.183C181.581 221.376 181.595 221.569 181.609 221.763C181.618 221.893 181.698 222.005 181.817 222.005C181.923 222.005 182.035 221.893 182.025 221.763Z"/><path fill="#F4F5F6" d="M186.421 220.37C187.188 219.464 188.02 218.632 188.905 217.885C189.795 217.138 190.734 216.472 191.715 215.897C192.687 215.325 193.698 214.844 194.736 214.457C195.785 214.066 196.862 213.77 197.952 213.576C199.027 213.384 200.117 213.299 201.205 213.316C201.342 213.318 201.479 213.321 201.615 213.327C201.884 213.338 201.884 212.853 201.615 212.843C200.504 212.799 199.39 212.865 198.288 213.035C197.176 213.207 196.077 213.479 195.002 213.854C193.934 214.227 192.89 214.7 191.884 215.261C190.883 215.82 189.918 216.472 189.006 217.211C188.087 217.955 187.218 218.784 186.417 219.692C186.319 219.803 186.223 219.915 186.126 220.028C185.938 220.251 186.232 220.593 186.421 220.37Z"/><path fill="#F4F5F6" d="M179.103 221.378C177.852 221.302 176.606 221.128 175.375 220.858C174.136 220.586 172.912 220.219 171.713 219.763C170.527 219.311 169.365 218.771 168.239 218.145C167.098 217.509 165.99 216.788 164.929 215.986C163.883 215.196 162.881 214.326 161.934 213.38C161.814 213.261 161.697 213.142 161.58 213.021C161.495 212.933 161.368 212.924 161.285 213.021C161.208 213.109 161.2 213.275 161.285 213.363C162.245 214.353 163.261 215.269 164.326 216.102C165.376 216.924 166.473 217.666 167.606 218.321C168.756 218.988 169.942 219.567 171.156 220.054C172.357 220.537 173.586 220.929 174.831 221.225C176.084 221.523 177.356 221.726 178.632 221.829C178.789 221.842 178.946 221.852 179.103 221.863C179.215 221.869 179.31 221.746 179.31 221.62C179.31 221.484 179.215 221.385 179.103 221.378Z"/><path fill="#F4F5F6" d="M181.505 212.176C180.608 211.216 179.779 210.168 179.038 209.045C178.293 207.917 177.632 206.718 177.061 205.462C176.743 204.758 176.451 204.038 176.193 203.303C176.151 203.181 176.055 203.096 175.937 203.134C175.838 203.165 175.75 203.31 175.792 203.431C176.264 204.777 176.831 206.074 177.494 207.307C178.157 208.537 178.91 209.704 179.743 210.786C180.207 211.391 180.697 211.968 181.21 212.518C181.292 212.606 181.422 212.612 181.505 212.518C181.581 212.428 181.587 212.264 181.505 212.176Z"/><path fill="#F4F5F6" d="M181.46 217.557C182.393 216.88 183.309 216.17 184.205 215.428C185.103 214.685 185.98 213.911 186.837 213.108C187.323 212.652 187.801 212.188 188.273 211.715C188.357 211.629 188.348 211.46 188.273 211.373C188.189 211.275 188.064 211.287 187.978 211.373C187.159 212.195 186.32 212.991 185.46 213.754C184.594 214.523 183.709 215.261 182.805 215.967C182.292 216.368 181.773 216.759 181.25 217.14C181.023 217.303 181.232 217.722 181.46 217.557Z"/><path fill="#F4F5F6" d="M171.83 219.891C171.353 218.726 170.931 217.53 170.567 216.309C170.201 215.076 169.893 213.819 169.646 212.545C169.508 211.828 169.389 211.106 169.289 210.381C169.271 210.253 169.133 210.181 169.033 210.213C168.915 210.25 168.87 210.381 168.888 210.51C169.066 211.806 169.305 213.089 169.607 214.353C169.909 215.617 170.272 216.861 170.693 218.078C170.935 218.773 171.193 219.459 171.471 220.135C171.519 220.253 171.665 220.284 171.756 220.222C171.86 220.152 171.879 220.01 171.83 219.891Z"/><path fill="#F4F5F6" d="M190.393 216.976C191.69 217.091 192.977 217.331 194.241 217.689C195.504 218.047 196.745 218.52 197.942 219.11C198.622 219.445 199.288 219.817 199.938 220.222C200.174 220.37 200.385 219.952 200.148 219.805C198.976 219.074 197.751 218.452 196.492 217.951C195.24 217.451 193.952 217.07 192.647 216.813C191.9 216.667 191.148 216.56 190.393 216.492C190.281 216.482 190.186 216.61 190.186 216.734C190.186 216.873 190.281 216.966 190.393 216.976Z"/><path fill="#F4F5F6" d="M194.818 214.283C195.654 212.979 196.669 211.819 197.806 210.871C198.131 210.601 198.467 210.346 198.811 210.109C199.042 209.95 198.832 209.531 198.601 209.692C197.351 210.555 196.213 211.644 195.247 212.908C194.97 213.271 194.708 213.65 194.458 214.039C194.391 214.144 194.444 214.31 194.532 214.37C194.638 214.442 194.75 214.389 194.818 214.283Z"/><path fill="#F26B41" d="M124.111 224.849C124.329 222.842 124.566 221.044 124.823 219.494C127.555 203.028 127.25 191.467 127.25 191.467H102.508C102.508 191.467 102.295 209.628 102.295 224.849H124.111V224.849Z"/><path fill="#F26B41" d="M129.568 224.849H149.772C149.772 209.628 149.558 191.467 149.558 191.467H124.817C124.817 191.467 125.142 202.144 128.421 218.513C128.838 220.594 129.219 222.709 129.568 224.849V224.849Z"/><path fill="#F58465" d="M148.85 125.349C149.644 123.793 149.228 111.612 147.848 110.404C146.736 109.43 145.168 108.987 143.668 108.561C139.708 107.437 136.791 106.212 132.913 104.888C132.252 104.663 131.564 104.416 131.114 103.939C130.621 103.415 130.835 90.515 130.835 90.515H120.626C120.626 90.515 120.839 103.415 120.346 103.939C119.897 104.416 119.208 104.663 118.548 104.888C114.67 106.212 111.502 107.437 107.541 108.561C106.041 108.987 104.473 109.43 103.361 110.404C101.981 111.612 101.565 123.793 102.36 125.349L125.605 130.546L148.85 125.349Z"/><path fill="#030404" d="M130.773 97.866C130.752 94.3095 130.815 90.515 130.815 90.515H120.605C120.605 90.515 120.701 96.2682 120.617 100.246C124.29 100.927 127.745 99.8823 130.773 97.866Z"/><path fill="#F58465" d="M138.961 76.5855C138.396 80.1306 135.464 88.4815 133.657 92.2916C131.757 96.2987 127.005 97.5919 124.185 97.1423C121.374 96.6939 117.71 93.9259 116.705 89.6224C115.77 85.6151 115.971 76.5631 116.539 73.0092C117.576 66.4997 123.042 64.4972 129.235 65.4847C135.426 66.4724 139.999 70.0762 138.961 76.5855Z"/><path fill="#161541" d="M129.337 80.6152C130.452 77.3125 134.322 80.865 133.695 81.3244C133.067 81.7839 131.787 80.7915 130.66 80.8346C130.275 80.8493 129.264 81.0517 129.337 80.6152Z"/><path fill="#161541" d="M124.288 79.8326C124.255 76.347 119.512 78.4655 119.965 79.0973C120.419 79.7292 121.904 79.2381 122.961 79.6295C123.324 79.7636 124.221 80.27 124.288 79.8326Z"/><path fill="#D55D42" d="M126.204 80.7314C125.882 81.8357 125.868 83.0112 126.139 84.1275C126.278 84.7013 126.507 85.2266 126.741 85.7657C126.966 86.2803 127.102 86.8178 126.657 87.2535C126.169 87.7305 125.422 87.8615 124.781 87.9968C124.516 88.0527 124.56 88.4759 124.829 88.4193C125.85 88.2036 127.502 87.8147 127.384 86.4465C127.331 85.8367 126.964 85.2908 126.76 84.7255C126.546 84.1331 126.416 83.5132 126.379 82.8841C126.339 82.1792 126.427 81.4755 126.623 80.7984C126.7 80.5365 126.279 80.472 126.204 80.7314Z"/><path fill="#161541" d="M132.115 83.5197C132.03 84.0485 131.534 84.4087 131.006 84.3243C130.476 84.2401 130.116 83.743 130.2 83.2142C130.285 82.6854 130.781 82.3252 131.31 82.4096C131.839 82.4938 132.199 82.9909 132.115 83.5197Z"/><path fill="#161541" d="M122.716 81.9939C122.632 82.5227 122.134 82.883 121.606 82.7986C121.077 82.7142 120.717 82.2172 120.801 81.6885C120.886 81.1598 121.382 80.7994 121.912 80.8838C122.44 80.9682 122.801 81.4651 122.716 81.9939Z"/><path fill="#F58465" d="M139.935 86.539C139.682 88.1163 138.2 89.1909 136.622 88.9394C135.045 88.6877 133.971 87.2051 134.222 85.6278C134.473 84.0505 135.957 82.9759 137.534 83.2274C139.112 83.479 140.186 84.9617 139.935 86.539Z"/><path fill="#D55D42" d="M138.111 84.7181C138.477 85.0378 138.678 85.5376 138.613 86.0219C138.547 86.5205 138.213 86.9636 137.756 87.1716C137.517 87.2804 137.663 87.6633 137.904 87.5537C138.491 87.2867 138.931 86.7314 139.017 86.0864C139.101 85.4565 138.847 84.8173 138.372 84.4012C138.173 84.227 137.913 84.5446 138.111 84.7181Z"/><path fill="#F58465" d="M112.524 82.1489C112.273 83.7262 113.347 85.2088 114.925 85.4604C116.502 85.7119 117.984 84.6372 118.237 83.0599C118.488 81.4826 117.414 80 115.836 79.7485C114.259 79.4969 112.775 80.5716 112.524 82.1489Z"/><path fill="#D55D42" d="M114.811 81.0269C114.364 81.217 114.02 81.6299 113.93 82.1102C113.838 82.6047 114.017 83.1297 114.386 83.4695C114.58 83.6472 114.321 83.9656 114.126 83.7864C113.652 83.3504 113.406 82.6852 113.524 82.0457C113.641 81.4211 114.081 80.8924 114.662 80.645C114.906 80.5414 115.054 80.9239 114.811 81.0269Z"/><path fill="#161541" d="M116.028 83.3741C116.594 83.5258 116.832 84.1828 116.983 84.7491C117.163 85.423 117.344 86.0971 117.524 86.7711C117.715 87.4865 117.95 88.2637 118.564 88.6769C118.909 88.9092 120.087 88.0575 121.731 88.2501C124.831 88.6134 127.649 88.9559 130.714 89.5433C132.227 89.8332 132.217 91.3457 133.347 90.2987C134.507 89.2238 134.602 87.1067 136.078 86.5364C136.078 86.5364 133.789 93.5131 133.153 94.9021C132.518 96.2912 129.868 98.9322 124.535 98.0815C119.202 97.231 117.447 94.2185 116.812 91.9646C116.179 89.7107 116.028 83.3741 116.028 83.3741Z"/><path fill="#fff" d="M129.571 89.9566C128.222 89.3274 126.647 89.8607 125.161 89.509C124.622 89.3821 124.12 89.1399 123.592 88.9915C122.975 88.8197 122.272 88.7767 121.704 89.1868C121.69 89.1837 122.182 90.6592 122.865 91.131C123.607 91.6601 124.537 91.9051 125.453 92.0486C126.354 92.1933 127.313 92.2465 128.147 91.9198C128.654 91.7404 129.612 90.3203 129.571 89.9566Z"/><path fill="#161541" d="M115.93 82.4336C114.974 82.7692 114.999 72.4634 115.789 67.8421C116.579 63.2208 122.232 61.5398 129.914 62.765C137.595 63.9902 141.871 68.911 141.266 71.9057C140.661 74.9004 137.668 86.1645 136.206 85.9312C135.154 85.7634 137.047 73.3304 137.047 73.3304C137.047 73.3304 135.169 74.6231 131.3 74.6155C125.616 74.6043 118.658 70.9494 118.658 70.9494C118.658 70.9494 116.887 82.098 115.93 82.4336Z"/><path fill="#161541" d="M123.356 65.4788C122.394 64.4737 122.118 63.0678 123.003 61.8947C123.621 61.0751 124.627 60.6134 125.643 60.464C128.207 60.0869 130.744 61.4421 133.299 60.7665C134.642 60.4112 135.762 59.7038 137.19 59.6386C138.927 59.5593 142.36 60.1146 143.087 62.0456C143.257 62.4979 143.226 63.0043 143.107 63.4726C142.391 66.2825 139.135 67.8481 136.456 67.9426C133.905 68.0327 124.349 66.5158 123.356 65.4788Z"/><path fill="#fff" d="M148.88 197.369C142.05 199.188 134.715 198.82 127.594 198.422C121.28 198.07 114.966 197.717 108.653 197.366C106.197 197.228 103.285 196.806 102.214 194.618C101.741 193.655 101.749 192.538 101.771 191.467C102.251 168.066 104.393 144.469 100.486 121.384C100.002 118.526 98.8762 111.968 100.204 109.384L109.3 107.422C112.588 111.891 116.128 116.05 121.424 117.778C126.963 119.585 133.534 118.817 137.897 114.987C140.322 112.856 140.86 110.319 142.295 107.422C144.552 107.967 151.145 110.856 151.145 110.856C153.069 113.727 152.059 117.548 151.844 120.987C150.813 137.483 149.083 145.97 149.883 160.698C150.455 171.224 154.487 186.659 151.292 196.625C150.496 196.907 149.692 197.154 148.88 197.369V197.369Z"/><path fill="#0C5957" d="M121.252 201.837C120.812 194.349 119.6 187.646 119.16 180.158C118.934 176.284 118.707 172.385 119.178 168.532C119.626 164.86 120.703 161.283 121.082 157.603C121.795 150.676 124.607 142.234 124.096 135.289C123.815 131.477 119.435 123.289 116.257 118.001C114.178 114.541 111.112 106.75 111.112 106.75L97.168 109.762C97.168 109.762 99.2031 126.606 99.4932 132.331C99.7845 138.055 102.073 161.874 100.93 167.136C99.7845 172.397 99.0391 197.058 99.4932 199.282C99.9484 201.506 121.252 201.837 121.252 201.837V201.837Z"/><path fill="#0C5957" d="M126.564 201.836C125.355 194.468 128.42 168.594 128.437 166.3C128.468 161.839 128.598 139.644 129.297 136.511C130.115 132.86 137.87 114.718 139.633 106.75C139.633 106.75 149.249 108.929 151.636 111.171C154.023 113.414 152.192 130.585 151.636 135.982C151.079 141.379 150.557 164.274 151.636 170.489C152.713 176.703 151.864 197.781 151.636 199.425C151.406 201.07 126.564 201.837 126.564 201.837V201.836Z"/><path fill="#0C5957" d="M173.993 158.388C171.282 152.941 168.359 147.486 166.865 141.568C166.184 138.874 165.794 136.068 164.575 133.571C163.262 130.885 161.074 128.728 159.537 126.164C157.769 123.22 156.911 119.828 155.467 116.711C154.232 114.048 151.756 110.295 149.802 110.169C147.847 110.043 141.769 131.325 148.207 139.993C149.02 141.086 149.947 142.145 150.351 143.444C150.802 144.891 160.132 163.838 163.633 165.507C170.611 168.832 172.893 160.453 173.993 158.388Z"/><path fill="#030404" d="M151.238 144.984C151.373 141.328 151.509 137.672 151.645 134.016C151.684 132.984 151.721 131.953 151.76 130.921C151.776 130.513 151.141 130.514 151.126 130.921C150.99 134.577 150.855 138.232 150.719 141.888C150.681 142.92 150.642 143.952 150.605 144.984C150.589 145.392 151.224 145.392 151.238 144.984Z"/><path fill="#0C5957" d="M73.2422 157.9C75.9529 152.454 78.8761 146.997 80.3709 141.081C81.0515 138.386 81.4416 135.58 82.6611 133.083C83.9729 130.396 86.161 128.24 87.6991 125.677C89.4659 122.731 90.3243 119.339 91.7683 116.223C93.0026 113.559 95.4796 109.807 97.4334 109.681C99.3873 109.554 105.467 130.837 99.0276 139.505C98.2163 140.598 97.2887 141.656 96.8836 142.957C96.433 144.403 87.1031 163.349 83.6017 165.018C76.6241 168.343 74.3418 159.964 73.2422 157.9Z"/><path fill="#030404" d="M101.076 145.592C100.82 144.583 100.773 143.547 100.761 142.511C100.75 141.464 100.744 140.417 100.707 139.37C100.632 137.234 100.472 135.101 100.228 132.977C100.09 131.774 99.9265 130.574 99.7366 129.38C99.6729 128.978 99.0621 129.149 99.1257 129.549C99.7956 133.776 100.09 138.032 100.126 142.311C100.135 143.469 100.179 144.632 100.464 145.759C100.564 146.154 101.177 145.987 101.076 145.592Z"/><path fill="#F27F54" d="M107.031 184.367C109.202 185.353 111.88 185.122 113.85 183.78C114.401 183.405 114.93 182.894 115.021 182.235C115.037 182.131 115.038 182.018 114.984 181.929C114.875 181.748 114.617 181.749 114.408 181.78C113.026 181.983 111.645 182.458 110.265 182.238C109.172 182.063 108.186 181.463 107.101 181.243C106.277 181.077 105.407 181.14 104.614 181.421L107.031 184.367Z"/><path fill="#F27F54" d="M102.173 185.452C102.173 185.452 103.28 188.418 103.704 189.506C104.127 190.594 111.322 189.116 112.571 188.077C113.82 187.038 110.211 184.056 110.211 184.056L105.428 183.166L102.173 185.452Z"/><path fill="#B55F3F" d="M111.211 188.704L109.344 186.829L110.837 188.83L111.211 188.704Z"/><path fill="#B55F3F" d="M108.669 189.385L107.513 187.866L108.449 189.432L108.669 189.385Z"/><path fill="#B55F3F" d="M106.53 189.759L105.743 188.66L106.34 189.78L106.53 189.759Z"/><path fill="#0C5957" d="M102.621 191.424C104.748 189.347 107.721 183.069 108.604 178.989C108.723 178.436 101.471 174.547 99.1801 173.776C94.101 172.067 87.7301 167.5 83.9244 163.726C80.5393 160.37 74.2392 155.551 73.2379 157.807C72.2366 160.064 68.8743 165.254 69.1713 168.305C69.5548 172.243 74.2583 177.274 77.71 179.208C81.1617 181.142 101.976 191.136 102.621 191.424Z"/><path fill="#030404" d="M83.9816 163.907C81.9295 163.736 79.8709 163.814 77.8356 164.123C77.4337 164.184 77.6045 164.795 78.004 164.734C79.981 164.434 81.9894 164.375 83.9816 164.54C84.388 164.575 84.3857 163.94 83.9816 163.907Z"/><path fill="#161541" d="M119.208 153.682H127.287C128.449 153.682 129.399 152.731 129.399 151.57V136.573C129.399 135.411 128.449 134.46 127.287 134.46H119.208C118.046 134.46 117.096 135.411 117.096 136.573V151.57C117.096 152.731 118.046 153.682 119.208 153.682Z"/><path fill="#F27F54" d="M132.694 146.166C134.472 146.952 136.812 151.012 135.203 153.471C133.591 155.963 128.363 155.912 126.614 154.909C124.883 153.975 125.765 150.616 127.413 148.349C129.05 145.994 130.914 145.453 132.694 146.166Z"/><path fill="#F27F54" d="M129.378 146.654C128.989 146.451 126.719 145.374 124.538 143.573C122.35 141.889 120.248 139.481 120.023 139.323C119.505 139.012 119.125 139.406 119.986 140.594C120.407 141.195 122.225 143.368 124.117 144.936C126.004 146.588 127.965 147.638 128.53 147.941C129.672 148.482 130.322 147.059 129.378 146.654Z"/><path fill="#F27F54" d="M128.146 147.942C127.741 147.719 125.368 146.541 123.136 144.515C120.887 142.625 118.777 139.89 118.556 139.729C118.08 139.438 117.69 139.928 118.554 141.293C118.977 141.985 120.805 144.465 122.746 146.236C124.677 148.106 126.719 149.266 127.309 149.602C128.5 150.198 129.136 148.382 128.146 147.942Z"/><path fill="#F27F54" d="M127.337 149.849C126.934 149.628 124.59 148.481 122.413 146.451C120.216 144.563 118.186 141.794 117.976 141.618C117.516 141.294 117.161 142 117.996 143.406C118.403 144.117 120.167 146.649 122.065 148.444C123.947 150.342 125.961 151.502 126.545 151.837C127.724 152.43 128.318 150.279 127.337 149.849Z"/><path fill="#F27F54" d="M126.898 152.81C126.577 152.653 124.753 151.837 123.042 150.473C121.319 149.197 119.709 147.373 119.54 147.243C118.973 146.851 118.878 147.851 119.549 148.813C120.156 150.185 125.558 154.584 126.615 154.884C127.673 155.183 127.668 153.129 126.898 152.81Z"/><path fill="#F27F54" d="M133.138 146.398L129.395 142.456V145.293L130.687 147.445L133.138 146.398Z"/><path fill="#0C5957" d="M129.395 159.307C129.544 156.339 132.284 149.955 134.758 146.594C135.093 146.139 142.809 149.001 144.902 150.209C149.545 152.886 157.186 154.64 162.533 154.995C167.29 155.313 174.006 156.236 174.045 158.704C174.137 164.747 171.347 167.291 168.863 169.087C165.657 171.405 158.773 171.208 155.038 169.899C151.305 168.591 130.037 159.6 129.395 159.307Z"/><path fill="#030404" d="M156.144 154.366C158.109 154.73 160.031 155.318 161.859 156.128C162.227 156.292 162.555 155.748 162.182 155.583C160.3 154.749 158.335 154.13 156.31 153.754C155.913 153.68 155.742 154.29 156.144 154.366Z"/><path fill="#333" d="M211.006 224.827H45.5495C45.389 224.827 45.2576 224.696 45.2576 224.536C45.2576 224.375 45.389 224.243 45.5495 224.243H211.006C211.166 224.243 211.298 224.375 211.298 224.536C211.298 224.696 211.166 224.827 211.006 224.827Z"/><path fill="#F7AD44" d="M234.11 114.136H200.649C191.975 114.136 184.867 121.181 184.762 129.832C181.747 129.542 178.786 128.681 176.095 127.291C175.852 127.166 175.555 127.036 175.32 127.175C174.979 127.378 175.114 127.896 175.295 128.246C177.524 132.55 180.816 136.286 184.764 139.094C184.963 147.664 192.034 154.614 200.649 154.614H234.11C242.85 154.614 250 147.463 250 138.724V130.026C250 121.287 242.85 114.136 234.11 114.136Z"/><path fill="#F58465" d="M210.649 154.657H222.093L228.133 153.307C228.535 152.519 228.324 146.355 227.626 145.744C227.064 145.252 226.27 145.027 225.51 144.812C223.507 144.243 222.031 143.624 220.069 142.954C219.735 142.839 219.386 142.714 219.159 142.473C218.91 142.208 219.017 135.681 219.017 135.681H213.852C213.852 135.681 213.96 142.208 213.71 142.473C213.483 142.714 213.135 142.839 212.8 142.954C210.838 143.624 209.235 144.243 207.231 144.812C206.472 145.027 205.678 145.252 205.116 145.744C204.418 146.355 204.208 152.519 204.609 153.307L210.649 154.657Z"/><path fill="#030404" d="M218.981 139.401C218.97 137.601 219.002 135.681 219.002 135.681H213.837C213.837 135.681 213.885 138.592 213.843 140.605C215.701 140.949 217.449 140.421 218.981 139.401Z"/><path fill="#F58465" d="M222.045 128.406C222.045 130.166 221.271 134.439 220.689 136.424C220.078 138.512 217.877 139.505 216.477 139.505C215.079 139.505 213.091 138.447 212.271 136.44C211.508 134.572 210.907 130.171 210.907 128.406C210.907 125.172 213.4 123.779 216.477 123.779C219.552 123.779 222.045 125.172 222.045 128.406Z"/><path fill="#161541" d="M217.682 131.121C217.967 129.435 220.116 130.857 219.848 131.128C219.579 131.4 218.882 131.018 218.34 131.125C218.155 131.163 217.681 131.338 217.682 131.121Z"/><path fill="#161541" d="M215.187 131.13C214.902 129.444 212.768 130.837 213.036 131.108C213.305 131.379 213.986 131.026 214.529 131.134C214.715 131.171 215.188 131.347 215.187 131.13Z"/><path fill="#161541" d="M219.456 132.25C219.456 132.513 219.244 132.727 218.981 132.727C218.718 132.727 218.506 132.513 218.506 132.25C218.506 131.988 218.718 131.775 218.981 131.775C219.244 131.775 219.456 131.988 219.456 132.25Z"/><path fill="#161541" d="M214.575 132.25C214.575 132.513 214.362 132.727 214.099 132.727C213.836 132.727 213.623 132.513 213.623 132.25C213.623 131.988 213.836 131.775 214.099 131.775C214.362 131.775 214.575 131.988 214.575 132.25Z"/><path fill="#C75027" d="M216.716 131.055C216.546 131.729 216.813 132.384 217.06 133.009C217.176 133.303 217.321 133.617 217.31 133.936C217.3 134.278 217.056 134.469 216.741 134.589C216.354 134.735 215.931 134.809 215.516 134.842C215.365 134.854 215.413 135.073 215.563 135.061C215.948 135.031 216.329 134.959 216.695 134.841C217.013 134.74 217.33 134.587 217.472 134.281C217.608 133.988 217.538 133.644 217.437 133.349C217.318 133.004 217.164 132.669 217.05 132.322C216.924 131.938 216.839 131.528 216.939 131.131C216.973 130.992 216.751 130.916 216.716 131.055Z"/><path fill="#A62A22" d="M218.089 135.308C217.501 135.124 216.896 135.473 216.268 135.422C216.041 135.405 215.821 135.332 215.597 135.303C215.336 135.27 215.047 135.301 214.844 135.525C214.838 135.524 215.133 136.146 215.441 136.308C215.777 136.492 216.171 136.534 216.553 136.533C216.928 136.533 217.32 136.49 217.638 136.284C217.832 136.169 218.129 135.467 218.089 135.308Z"/><path fill="#fff" d="M218.089 135.308C217.501 135.124 216.896 135.473 216.268 135.422C216.041 135.405 215.821 135.332 215.597 135.303C215.336 135.27 215.047 135.301 214.844 135.524C214.842 135.524 214.878 135.605 214.941 135.716C215.814 135.988 217.504 136.006 218.046 135.57C218.082 135.454 218.102 135.356 218.089 135.308Z"/><path fill="#F58465" d="M223.296 133.133C223.296 133.916 222.661 134.551 221.878 134.551C221.095 134.551 220.459 133.916 220.459 133.133C220.459 132.348 221.095 131.714 221.878 131.714C222.661 131.714 223.296 132.348 223.296 133.133Z"/><path fill="#D55D42" d="M222.245 132.391C222.448 132.519 222.582 132.745 222.59 132.984C222.595 133.231 222.468 133.472 222.263 133.607C222.156 133.679 222.256 133.854 222.364 133.782C222.627 133.607 222.798 133.304 222.79 132.984C222.782 132.673 222.61 132.383 222.347 132.218C222.237 132.15 222.137 132.323 222.245 132.391Z"/><path fill="#F58465" d="M209.656 133.133C209.656 133.916 210.291 134.551 211.074 134.551C211.857 134.551 212.493 133.916 212.493 133.133C212.493 132.348 211.857 131.714 211.074 131.714C210.291 131.714 209.656 132.348 209.656 133.133Z"/><path fill="#D55D42" d="M210.689 132.391C210.487 132.519 210.352 132.745 210.345 132.984C210.339 133.231 210.466 133.472 210.671 133.607C210.779 133.679 210.679 133.854 210.57 133.782C210.307 133.607 210.136 133.304 210.144 132.984C210.153 132.673 210.325 132.383 210.588 132.218C210.697 132.15 210.799 132.323 210.689 132.391Z"/><path fill="#161541" d="M214.46 127.832C214.375 127.877 214.29 127.921 214.207 127.964C213.499 128.324 212.651 128.569 211.899 128.418C211.702 129.679 211.598 130.953 211.589 132.229C210.684 131.35 209.837 130.339 209.444 129.134C209.076 128.011 209.155 126.691 209.876 125.756C210.32 125.182 210.984 124.767 211.274 124.103C211.432 123.738 211.466 123.322 211.669 122.981C212.086 122.281 213.03 122.148 213.844 122.126C214.482 122.111 215.186 122.09 215.721 121.789C215.637 121.516 215.482 121.24 215.328 121.003C215.003 120.498 214.708 119.783 215.128 119.353C215.386 119.087 215.802 119.076 216.174 119.08C216.885 119.091 217.62 119.107 218.272 119.396C218.923 119.685 219.473 120.322 219.435 121.033C219.427 121.161 219.403 121.291 219.44 121.412C219.514 121.645 219.787 121.751 220.031 121.764C220.274 121.777 220.525 121.731 220.759 121.799C221.09 121.894 221.323 122.198 221.451 122.518C221.813 123.419 221.49 124.498 220.818 125.2C220.29 125.749 219.581 126.091 218.835 126.274C218.814 126.365 218.785 126.453 218.746 126.536C218.536 126.989 218.102 127.308 217.63 127.466C217.363 127.556 217.074 127.599 216.798 127.544C216.601 127.504 216.417 127.416 216.22 127.372C215.614 127.237 215.023 127.538 214.46 127.832Z"/><path fill="#161541" d="M220.104 124.27C219.694 124.259 219.269 124.281 218.908 124.448C218.363 124.702 218.009 125.373 218.722 125.832C218.638 126.925 219.31 128.051 220.411 128.583C220.592 128.671 220.808 128.77 220.842 128.951C220.861 129.047 220.82 129.144 220.788 129.238C220.596 129.806 220.732 130.422 220.985 130.971C221.191 131.418 221.471 131.835 221.721 132.264C222.136 130.907 222.966 129.614 222.977 128.208C222.984 127.396 222.714 126.604 222.379 125.848C222.142 125.311 221.83 124.748 221.25 124.479C220.911 124.321 220.516 124.283 220.13 124.271C220.122 124.271 220.112 124.27 220.104 124.27Z"/><path fill="#161541" d="M221.206 125.004C221.989 124.522 222.27 123.404 221.79 122.615C221.712 122.488 221.507 122.598 221.585 122.727C221.996 123.404 221.773 124.38 221.095 124.799C220.968 124.877 221.079 125.083 221.206 125.004Z"/><path fill="#161541" d="M217.762 120.043C218.065 119.767 218.509 119.667 218.9 119.799C219.257 119.921 219.541 120.237 219.632 120.601C219.68 120.798 219.682 121.003 219.768 121.188C219.84 121.345 219.968 121.457 220.125 121.525C220.416 121.649 220.825 121.599 221.061 121.832C221.447 122.212 221.057 122.769 220.769 123.06C220.664 123.166 220.828 123.331 220.934 123.225C221.25 122.905 221.534 122.49 221.42 122.019C221.312 121.576 220.915 121.469 220.521 121.394C220.341 121.358 220.131 121.319 220.016 121.159C219.878 120.966 219.906 120.687 219.836 120.468C219.709 120.065 219.393 119.735 218.998 119.587C218.52 119.408 217.968 119.541 217.597 119.878C217.486 119.98 217.651 120.145 217.762 120.043Z"/><path fill="#161541" d="M216.258 121.281C216 121.251 215.777 121.379 215.547 121.477C215.31 121.579 215.057 121.613 214.8 121.612C214.309 121.609 213.823 121.495 213.33 121.508C213.088 121.514 212.846 121.553 212.621 121.646C212.383 121.746 212.176 121.904 211.984 122.076C211.595 122.428 211.169 122.82 210.945 123.304C210.826 123.562 210.759 123.846 210.794 124.131C210.831 124.428 211.034 124.69 211.024 124.991C211.02 125.141 211.253 125.141 211.258 124.991C211.265 124.745 211.149 124.537 211.074 124.31C210.991 124.061 211.008 123.805 211.092 123.559C211.262 123.061 211.68 122.685 212.051 122.332C212.238 122.157 212.436 121.987 212.671 121.877C212.883 121.779 213.119 121.745 213.35 121.74C213.81 121.731 214.261 121.831 214.72 121.844C214.969 121.851 215.224 121.832 215.462 121.757C215.725 121.673 215.971 121.481 216.258 121.515C216.407 121.533 216.405 121.299 216.258 121.281Z"/><path fill="#E5423A" d="M232.796 154.15C232.12 152.645 231.929 151.003 231.426 149.442C231.035 148.23 230.193 146.52 229.316 146.066C229.303 146.046 229.29 146.025 229.277 146.005C229.277 146.005 222.378 143.403 221.235 143.127C220.51 144.593 219.96 149.422 216.464 149.728C213.655 149.974 212.572 144.969 211.962 143.127L202.701 145.407C202.698 145.413 202.695 145.42 202.693 145.426C202.678 145.427 202.664 145.429 202.649 145.435C201.728 145.8 201.119 147.991 200.937 149.465C200.725 151.19 200.838 152.957 200.444 154.649C200.443 154.656 200.441 154.663 200.439 154.67H233.05C232.961 154.499 232.875 154.326 232.796 154.15H232.796Z"/><path fill="#30A6A6" d="M196.049 25.1466H162.589C153.849 25.1466 146.698 32.2972 146.698 41.0368V49.7342C146.698 58.4738 153.849 65.6244 162.589 65.6244H163.332C162.735 70.8621 160.421 75.8825 157.259 80.1378C163.072 76.5296 167.992 71.499 171.498 65.6244H196.049C204.789 65.6244 211.939 58.4738 211.939 49.7342V41.0368C211.939 32.2972 204.789 25.1466 196.049 25.1466H196.049Z"/><path fill="#161541" d="M173.078 46.7685C172.685 46.0633 172.297 45.161 172.763 44.5014C172.966 44.2147 173.303 44.0314 173.457 43.7155C173.704 43.2012 173.361 42.6053 173.001 42.1615C172.642 41.7179 172.225 41.2116 172.325 40.6492C172.444 39.9739 173.272 39.5454 173.264 38.8598C173.256 38.0387 172.079 37.6494 171.972 36.8354C171.849 35.9013 173.861 34.6723 174.144 33.7737C175.398 29.793 176.45 29.48 181.932 29.48C184.075 29.48 185.329 30.819 186.685 33.4886C187.166 34.435 187.142 35.4406 187.552 36.033C187.872 36.4956 188.475 36.7967 188.561 37.3527C188.653 37.9406 188.105 38.4391 188.021 39.028C187.862 40.1356 189.338 40.9699 189.203 42.0806C189.088 43.0206 187.855 43.6043 187.927 44.5485C187.956 44.949 188.227 45.2924 188.31 45.6852C188.394 46.0782 188.109 46.6081 187.725 46.494L173.078 46.7685Z"/><path fill="#E3764F" d="M191.308 58.2879C191.694 57.5315 189.734 51.8779 189.005 51.6709C187.079 51.1245 186.091 50.5382 184.205 49.8946C183.884 49.785 183.55 49.6652 183.331 49.4328C183.092 49.1785 183.196 42.9077 183.196 42.9077H178.233C178.233 42.9077 178.337 49.1785 178.098 49.4328C177.878 49.6652 177.543 49.785 177.223 49.8946C175.338 50.5382 173.798 51.1335 171.872 51.6798C171.143 51.8869 170.382 52.1025 169.84 52.576C169.169 53.1628 168.968 59.0844 169.353 59.8407L180.653 62.367L191.308 58.2879Z"/><path fill="#030404" d="M183.165 46.4811C183.154 44.7522 183.185 42.9077 183.185 42.9077H178.223C178.223 42.9077 178.269 45.7044 178.229 47.6381C180.013 47.9692 181.693 47.4612 183.165 46.4811Z"/><path fill="#F27F54" d="M185.771 35.6293C185.771 37.3197 185.764 40.9909 184.47 43.127C183.389 44.9132 181.769 46.2839 180.425 46.2839C179.085 46.2839 177.47 44.9214 176.39 43.1431C175.09 41.0047 175.079 37.324 175.079 35.6293C175.079 32.5256 177.473 31.189 180.425 31.189C183.378 31.189 185.771 32.5256 185.771 35.6293Z"/><path fill="#161541" d="M178.97 38.237C178.825 38.2237 178.818 38.1915 178.707 38.1261C178.109 37.7593 177.365 38.0433 176.76 38.4322C176.698 37.9875 177.925 37.391 178.426 37.4854C178.928 37.5798 179.409 38.0995 178.97 38.237Z"/><path fill="#161541" d="M181.734 38.0234C182.016 36.8743 183.967 37.5678 184.084 38.3327C183.522 38.0135 182.804 37.6628 182.128 38.079C182.045 38.1035 181.701 38.3606 181.734 38.0234Z"/><path fill="#D55D42" d="M180.127 38.2452C180.058 38.8 180.14 39.3653 180.356 39.8804C180.467 40.1452 180.617 40.3799 180.771 40.6207C180.918 40.8505 181.025 41.0981 180.844 41.3414C180.646 41.6076 180.298 41.7278 180.001 41.8417C179.879 41.8889 179.932 42.0887 180.055 42.0409C180.53 41.8592 181.293 41.5461 181.132 40.8983C181.06 40.6096 180.842 40.3755 180.701 40.12C180.552 39.8519 180.442 39.5643 180.377 39.2651C180.303 38.9299 180.291 38.5855 180.334 38.2452C180.35 38.1136 180.144 38.1148 180.127 38.2452Z"/><path fill="#E6494F" d="M182 42.4081C181.408 42.2392 180.801 42.5591 180.172 42.5123C179.943 42.4957 179.723 42.4296 179.499 42.4035C179.236 42.3735 178.946 42.4017 178.742 42.6058C178.736 42.6056 179.032 43.1753 179.341 43.3232C179.678 43.4908 180.073 43.5302 180.456 43.5291C180.834 43.5294 181.227 43.4888 181.546 43.3014C181.742 43.1952 182.039 42.5538 182 42.4081Z"/><path fill="#fff" d="M179.321 42.7581C179.314 42.8161 181.181 42.9145 181.602 42.6636C181.607 42.6541 181.307 43.1722 180.399 43.1824C179.495 43.1657 179.32 42.7474 179.321 42.7581Z"/><path fill="#161541" d="M183.376 39.1066C183.376 39.367 183.165 39.578 182.905 39.578C182.645 39.578 182.434 39.367 182.434 39.1066C182.434 38.8463 182.645 38.6353 182.905 38.6353C183.165 38.6353 183.376 38.8463 183.376 39.1066Z"/><path fill="#161541" d="M178.555 39.1066C178.555 39.367 178.343 39.578 178.084 39.578C177.823 39.578 177.612 39.367 177.612 39.1066C177.612 38.8463 177.823 38.6353 178.084 38.6353C178.343 38.6353 178.555 38.8463 178.555 39.1066Z"/><path fill="#F27F54" d="M187.168 39.9801C187.168 40.7565 186.54 41.3859 185.762 41.3859C184.986 41.3859 184.357 40.7565 184.357 39.9801C184.357 39.2038 184.986 38.5742 185.762 38.5742C186.54 38.5742 187.168 39.2038 187.168 39.9801Z"/><path fill="#D55D42" d="M186.143 39.2503C186.342 39.3758 186.477 39.6004 186.483 39.8378C186.49 40.0823 186.363 40.3205 186.159 40.4553C186.053 40.5258 186.152 40.6985 186.26 40.6274C186.521 40.4544 186.69 40.154 186.682 39.8378C186.674 39.5291 186.504 39.2416 186.243 39.0783C186.135 39.01 186.034 39.1823 186.143 39.2503Z"/><path fill="#F27F54" d="M173.676 39.9801C173.676 40.7565 174.305 41.3859 175.081 41.3859C175.858 41.3859 176.487 40.7565 176.487 39.9801C176.487 39.2038 175.858 38.5742 175.081 38.5742C174.305 38.5742 173.676 39.2038 173.676 39.9801Z"/><path fill="#D55D42" d="M174.674 39.2503C174.473 39.3758 174.34 39.6004 174.333 39.8378C174.327 40.0823 174.453 40.3205 174.656 40.4553C174.763 40.5258 174.663 40.6985 174.556 40.6274C174.295 40.4544 174.125 40.154 174.134 39.8378C174.142 39.5291 174.313 39.2416 174.573 39.0783C174.682 39.01 174.782 39.1823 174.674 39.2503Z"/><path fill="#161541" d="M174.911 33.16C176.068 31.0128 178.229 30.3813 179.936 30.2357C182.191 30.0433 185.652 31.0656 186.11 32.4491C186.567 33.8327 185.771 38.5823 185.771 38.5823L183.833 36.0121H176.692C176.6 36.6429 176.194 37.2262 175.876 37.8008C175.791 37.9539 175.71 38.1183 175.714 38.2932C175.718 38.4514 175.792 38.5994 175.877 38.7326C176.26 39.3281 176.935 39.8744 176.805 40.5699C176.758 40.8202 176.607 41.0373 176.521 41.2767C176.302 41.8807 176.512 42.5566 176.814 43.124C177.114 43.6914 177.509 44.2171 177.697 44.8316C177.884 45.446 177.804 46.207 177.291 46.5942H175.08C175.08 46.5942 174.605 45.9497 174.741 45.0032C174.879 44.0567 173.942 42.164 173.422 40.9808C172.901 39.7978 173.674 39.9882 174.155 35.7281C174.272 34.6934 174.541 33.8487 174.911 33.16Z"/><path fill="#161541" d="M183.768 34.9201C183.569 35.3023 183.514 35.7384 183.607 36.1588C183.702 36.5849 183.953 36.9032 184.261 37.1985C184.407 37.3389 184.565 37.4777 184.677 37.6487C184.811 37.8546 184.808 38.0348 184.764 38.2704C184.677 38.7299 184.874 39.087 185.177 39.42C185.478 39.7499 186.087 40.2423 185.822 40.7527C185.741 40.9095 185.978 41.0487 186.059 40.8916C186.274 40.4813 186.085 40.0453 185.82 39.7084C185.555 39.3718 185.12 39.0942 185.024 38.6523C184.972 38.4121 185.095 38.1796 185.071 37.9379C185.052 37.7486 184.969 37.5788 184.856 37.4284C184.61 37.1025 184.246 36.8766 184.04 36.5198C183.783 36.0769 183.77 35.5129 184.005 35.059C184.086 34.9021 183.849 34.7628 183.768 34.9201Z"/><path fill="#161541" d="M176.577 35.3975C176.827 35.7044 176.753 36.1418 176.628 36.4847C176.486 36.8715 176.246 37.2147 176.124 37.6107C175.886 38.3887 176.323 39.0136 176.642 39.6874C176.807 40.0365 176.898 40.3956 176.825 40.7817C176.749 41.1784 176.57 41.5454 176.458 41.9315C176.24 42.6795 176.401 43.4983 176.992 44.0356C177.15 44.1801 177.373 44.2969 177.468 44.4974C177.564 44.6968 177.498 44.9277 177.398 45.1115C177.18 45.514 176.769 45.7712 176.578 46.1951C176.506 46.3551 176.743 46.4952 176.816 46.3339C176.99 45.9483 177.346 45.7017 177.573 45.3537C177.775 45.0465 177.887 44.6283 177.671 44.2986C177.559 44.1285 177.392 44.0166 177.24 43.8875C177.085 43.7573 176.957 43.6037 176.856 43.4285C176.648 43.0633 176.582 42.6348 176.668 42.2236C176.754 41.8111 176.944 41.4302 177.051 41.0236C177.152 40.6352 177.151 40.2483 177.014 39.8688C176.76 39.1581 176.148 38.5109 176.382 37.7086C176.518 37.2449 176.821 36.8502 176.948 36.3832C177.06 35.9754 177.046 35.5413 176.772 35.2031C176.66 35.0657 176.466 35.2613 176.577 35.3975Z"/><path fill="#161541" d="M175.282 31.8087C174.077 32.2537 173.847 33.6784 173.417 34.7219C173.295 35.019 173.146 35.3062 172.94 35.5542C172.743 35.7899 172.487 35.9657 172.277 36.188C172.091 36.3852 171.942 36.6259 171.964 36.9074C171.981 37.1527 172.129 37.3486 172.3 37.5137C172.475 37.6835 172.697 37.8302 172.821 38.0468C172.941 38.2578 172.914 38.4879 172.82 38.7024C172.613 39.1751 172.21 39.539 172.044 40.0342C171.881 40.5212 172.057 40.9652 172.31 41.3836C172.531 41.7471 172.921 42.2182 172.756 42.6731C172.643 42.9855 172.334 43.177 172.133 43.4288C171.935 43.6785 171.846 43.9879 171.845 44.3043C171.841 44.9923 172.162 45.6674 172.012 46.3555C171.975 46.5283 172.249 46.556 172.286 46.3847C172.415 45.7881 172.207 45.1969 172.137 44.6073C172.103 44.3221 172.106 44.0223 172.242 43.7619C172.379 43.5006 172.631 43.3271 172.816 43.1034C173.152 42.6981 173.108 42.2266 172.872 41.7855C172.655 41.3805 172.295 40.988 172.251 40.5131C172.165 39.5746 173.63 38.8746 173.053 37.9017C172.926 37.6872 172.727 37.5347 172.545 37.3691C172.366 37.2049 172.183 36.9994 172.249 36.7358C172.317 36.4685 172.577 36.2728 172.774 36.1001C173.004 35.8978 173.21 35.6842 173.372 35.4222C173.743 34.8213 173.893 34.1277 174.158 33.4809C174.402 32.8879 174.767 32.2918 175.395 32.0596C175.562 31.9984 175.448 31.7476 175.282 31.8087Z"/><path fill="#E3764F" d="M169.309 65.6351C171.231 61.6536 173.089 57.5981 173.086 56.6271C173.245 53.3802 170.543 52.3211 170.543 52.3211C169.244 52.0164 166.356 56.7614 165.561 59.5154C165.166 60.8847 164.426 63.2408 163.666 65.6351H169.309Z"/><path fill="#E3764F" d="M191.03 65.6268H196.427C195.394 62.8327 194.29 59.801 193.716 58.2232C192.761 55.5942 189.784 51.1932 188.676 51.6013C188.676 51.6013 186.41 52.8662 186.856 56.0313C186.953 57.0568 189.032 61.529 191.03 65.6268Z"/><path fill="#FEC653" d="M172.046 65.6522H188.947C188.662 63.5737 188.495 61.479 188.451 59.3815C188.396 56.8632 188.704 54.276 189.428 51.5052L187.609 50.9643C186.975 53.8291 186.228 57.2381 185.948 59.6496C185.934 59.7717 177.845 59.7353 173.603 59.7411C173.286 56.8472 172.803 54.3206 172.133 51.4615L170.227 52.194C171.58 56.6668 172.109 61.1413 172.046 65.6522Z"/><path fill="#E6E6E6" d="M178.304 62.4178C178.467 62.3076 178.314 62.0406 178.149 62.1517C178.08 62.1978 177.997 62.1103 177.946 62.0669C177.879 62.0089 177.811 61.9519 177.728 61.9185C177.574 61.857 177.423 61.8985 177.3 61.9993C177.21 62.0714 177.119 62.233 177.001 62.255C176.893 62.2752 176.781 62.1383 176.708 62.0779C176.597 61.9868 176.476 61.901 176.328 61.8952C176.189 61.8896 176.068 61.9568 175.968 62.0487C175.875 62.1351 175.807 62.2614 175.702 62.3333C175.588 62.4102 175.495 62.2693 175.409 62.2069C175.118 61.9957 174.665 62.1122 174.515 62.4411C174.433 62.6201 174.698 62.7769 174.781 62.5967C174.837 62.4731 174.961 62.3932 175.1 62.407C175.25 62.422 175.337 62.5705 175.468 62.6306C175.755 62.7621 175.948 62.525 176.12 62.3347C176.183 62.2656 176.258 62.1773 176.36 62.2118C176.482 62.2531 176.579 62.3788 176.68 62.4531C176.791 62.5342 176.923 62.5839 177.063 62.5563C177.208 62.5277 177.311 62.4208 177.41 62.3183C177.449 62.2779 177.499 62.2123 177.557 62.1991C177.633 62.1814 177.703 62.2646 177.756 62.3097C177.908 62.439 178.117 62.5436 178.304 62.4178Z"/><path fill="#E6E6E6" d="M183.291 65.6494C183.356 65.5721 183.438 65.5081 183.536 65.5171C183.641 65.5265 183.735 65.5964 183.833 65.6494H184.297C184.317 65.6364 184.338 65.6225 184.356 65.606C184.442 65.5327 184.512 65.3768 184.625 65.3483C184.736 65.3207 184.878 65.4087 184.978 65.4447C185.103 65.4897 185.238 65.5154 185.364 65.4594C185.426 65.4316 185.474 65.3886 185.516 65.3346C185.566 65.2661 185.591 65.1719 185.678 65.1396C185.849 65.076 186.03 65.2233 186.155 65.3208C186.309 65.4415 186.529 65.225 186.373 65.103C186.208 64.974 186.035 64.8418 185.819 64.8219C185.626 64.8042 185.44 64.8782 185.333 65.0428C185.299 65.0955 185.279 65.1733 185.211 65.185C185.155 65.1948 185.083 65.1563 185.031 65.1369C184.884 65.0812 184.733 65.0153 184.572 65.0458C184.404 65.0778 184.312 65.2044 184.203 65.3241C184.163 65.3693 184.124 65.4129 184.058 65.4092C183.986 65.405 183.909 65.3458 183.847 65.3128C183.682 65.225 183.512 65.1738 183.33 65.2466C183.153 65.3176 183.027 65.4712 182.931 65.6305C182.927 65.6369 182.925 65.6431 182.922 65.6494H183.291Z"/><path fill="#F27F54" d="M169.669 65.6488C171.312 61.9622 173.024 58.0839 173.61 56.8586C174.286 54.9507 172.045 54.4189 171.364 55.6693C170.94 56.4468 167.834 61.5438 165.283 65.6488H169.669Z"/><path fill="#F27F54" d="M172.85 53.2107C171.993 53.7512 170.656 55.9561 171.214 57.0327C171.771 58.1246 174.136 57.6522 174.996 57.0067C175.841 56.3974 175.674 54.8149 175.086 53.8368C174.508 52.8138 173.703 52.7063 172.85 53.2107Z"/><path fill="#F27F54" d="M173.615 52.926C173.615 52.926 175.457 52.758 177.373 53.9069C178.471 54.7381 178.154 55.4985 177.215 54.7965C176.275 54.0944 174.953 54.2948 174.391 54.4952C173.828 54.6954 173.387 53.3888 173.615 52.926Z"/><path fill="#AB593C" d="M175.307 54.2435C175.116 54.2223 174.924 54.2091 174.731 54.2026C174.586 54.1979 174.443 54.1964 174.299 54.2102C174.148 54.2246 174.011 54.2736 173.872 54.3463C173.736 54.417 173.603 54.5009 173.479 54.5994C173.439 54.6308 173.477 54.7097 173.516 54.6781C173.743 54.4976 174.009 54.3326 174.28 54.3032C174.55 54.274 174.826 54.2934 175.096 54.3152C175.167 54.3208 175.237 54.3269 175.307 54.3347C175.354 54.3398 175.354 54.2486 175.307 54.2435Z"/><path fill="#AB593C" d="M175.491 55.037C175.298 55.0158 175.106 55.0026 174.914 54.9962C174.77 54.9914 174.625 54.9898 174.481 55.0037C174.331 55.0181 174.193 55.0672 174.054 55.1397C173.92 55.2105 173.787 55.2943 173.662 55.3928C173.623 55.4243 173.659 55.5032 173.699 55.4716C173.927 55.291 174.191 55.1261 174.462 55.0967C174.734 55.0674 175.008 55.087 175.278 55.1086C175.349 55.1143 175.42 55.1204 175.491 55.1282C175.537 55.1334 175.537 55.0421 175.491 55.037Z"/><path fill="#AB593C" d="M175.515 55.8915C175.329 55.8703 175.144 55.8571 174.959 55.8507C174.82 55.8459 174.681 55.8444 174.542 55.8582C174.398 55.8727 174.265 55.9217 174.131 55.9942C174 56.0651 173.872 56.149 173.753 56.2473C173.715 56.2788 173.75 56.3578 173.788 56.3261C174.007 56.1456 174.262 55.9806 174.524 55.9512C174.785 55.922 175.05 55.9415 175.311 55.9633C175.379 55.9688 175.446 55.9749 175.515 55.9827C175.559 55.9879 175.559 55.8967 175.515 55.8915Z"/><path fill="#F27F54" d="M187.499 65.6338H193.008C189.236 62.4709 184.35 58.2958 183.679 57.6637C182.643 56.6871 180.678 57.8894 181.914 59.4926C182.749 60.3671 185.086 62.9627 187.499 65.6338Z"/><path fill="#161541" d="M177.75 61.3972H181.776C182.355 61.3972 182.828 60.9235 182.828 60.3445V52.8714C182.828 52.2925 182.355 51.8188 181.776 51.8188H177.75C177.171 51.8188 176.697 52.2925 176.697 52.8714V60.3445C176.697 60.9235 177.171 61.3972 177.75 61.3972Z"/><path fill="#F27F54" d="M184.469 57.6406C185.354 58.0325 186.52 60.0554 185.719 61.2809C184.915 62.5224 182.31 62.4971 181.439 61.9969C180.577 61.5315 181.016 59.8583 181.836 58.7288C182.652 57.5548 183.582 57.2854 184.469 57.6406Z"/><path fill="#F27F54" d="M182.791 57.842C182.597 57.7409 181.466 57.204 180.378 56.3066C179.289 55.4673 178.241 54.2674 178.129 54.1889C177.871 54.0342 177.681 54.2306 178.111 54.8224C178.32 55.1223 179.226 56.2043 180.17 56.9858C181.109 57.8093 182.087 58.3324 182.368 58.4832C182.937 58.7529 183.261 58.0438 182.791 57.842Z"/><path fill="#F27F54" d="M182.19 58.5153C181.987 58.4041 180.805 57.8168 179.692 56.8072C178.572 55.8661 177.521 54.5026 177.411 54.4225C177.173 54.2773 176.979 54.522 177.41 55.2021C177.62 55.547 178.532 56.7827 179.499 57.665C180.461 58.5968 181.479 59.1752 181.772 59.3422C182.367 59.6394 182.683 58.7341 182.19 58.5153Z"/><path fill="#F27F54" d="M181.786 59.4381C181.584 59.3282 180.416 58.756 179.331 57.7446C178.237 56.804 177.225 55.4243 177.121 55.3369C176.891 55.1749 176.715 55.5271 177.131 56.2274C177.334 56.5822 178.213 57.8437 179.158 58.7379C180.096 59.6834 181.1 60.2615 181.39 60.4284C181.978 60.7241 182.275 59.6522 181.786 59.4381Z"/><path fill="#F27F54" d="M181.57 60.9231C181.409 60.845 180.5 60.4383 179.647 59.7583C178.789 59.1224 177.987 58.2132 177.903 58.1489C177.62 57.9539 177.573 58.4519 177.907 58.9309C178.21 59.615 180.901 61.8067 181.428 61.9559C181.955 62.1051 181.953 61.0819 181.57 60.9231Z"/><path fill="#F27F54" d="M184.695 57.7503L182.831 55.7861V57.2L183.475 58.2716L184.695 57.7503Z"/><path fill="#5879BC" d="M72.2892 38.0859H23.2761C10.4743 38.0859 0 48.5601 0 61.362V74.102C0 86.9038 10.4743 97.3781 23.2761 97.3781H44.5537C46.2806 103.089 49.0469 108.485 52.6887 113.211C51.3286 109.529 51.2839 105.464 51.931 101.592C52.1687 100.17 52.4964 98.767 52.8801 97.3781H72.2891C85.0908 97.3781 95.5652 86.9038 95.5652 74.102V61.362C95.5652 48.5601 85.0908 38.0859 72.2891 38.0859H72.2892Z"/><path fill="#BA2E43" d="M40.1599 76.9204C39.5835 75.8857 39.0147 74.5619 39.6976 73.5943C39.9945 73.1737 40.4903 72.9048 40.7142 72.4412C41.0785 71.6868 40.5745 70.8125 40.0471 70.1616C39.5196 69.5107 38.9084 68.768 39.0537 67.9428C39.2283 66.9522 40.4428 66.3234 40.4328 65.3175C40.4207 64.113 40.2419 59.2449 40.02 58.0608C39.2722 54.0721 41.3086 52.4783 41.7237 51.16C43.5626 45.32 45.1066 44.8608 53.1497 44.8608C56.2921 44.8608 58.1315 46.8252 60.1224 50.7417C60.8283 52.1303 60.6376 52.5399 60.8283 53.5792C61.2052 55.6331 60.8574 57.5183 61.1293 58.2976C62.1789 61.3071 62.2053 64.7004 62.081 65.5644C61.8474 67.1894 64.014 68.4133 63.8155 70.0429C63.6475 71.4218 61.8387 72.2781 61.9427 73.6634C61.9868 74.251 62.3838 74.7549 62.5063 75.3312C62.6288 75.9075 62.2123 76.6853 61.6474 76.5176L40.1599 76.9204Z"/><path fill="#CA734F" d="M67.732 88.7825C68.3378 87.5951 65.9343 78.7332 64.7893 78.4082C61.767 77.5505 59.5412 76.6157 56.5818 75.6054C56.0777 75.4334 55.5521 75.2451 55.209 74.8805C54.8329 74.4809 54.9957 64.6364 54.9957 64.6364H47.2048C47.2048 64.6364 47.3675 74.4809 46.9916 74.8805C46.6484 75.2451 46.1228 75.4334 45.6187 75.6054C42.6592 76.6157 40.2415 77.5505 37.2193 78.4082C36.0742 78.7332 34.8775 79.0718 34.0284 79.8151C32.9757 80.7364 32.6583 90.0331 33.2642 91.2205L51.0043 95.1868L67.732 88.7825Z"/><path fill="#030404" d="M54.9698 70.2464C54.9538 67.532 55.0016 64.6364 55.0016 64.6364H47.2107C47.2107 64.6364 47.2832 69.0268 47.2194 72.0627C50.0224 72.5826 52.6589 71.785 54.9698 70.2464Z"/><path fill="#CA734F" d="M28.8696 97.3432H37.8038C38.6726 91.7329 39.3009 86.7063 38.936 85.4882C37.7284 80.5295 33.1887 80.1392 33.1887 80.1392C31.0972 80.2594 28.8637 88.6897 28.8943 93.1898C28.9016 94.2577 28.8911 95.7 28.8696 97.3432Z"/><path fill="#F4F5F6" d="M69.0385 79.1391C68.3191 78.5361 66.5585 78.1754 65.2659 77.9834C62.1228 77.0042 56.4411 75.3522 56.4411 75.3522C56.4411 76.2235 53.6847 87.9585 51.4242 87.9284C49.0119 87.8962 46.0614 76.1145 45.8435 75.1344L35.2719 78.9318C33.9678 79.1094 31.9582 79.4784 31.1771 80.1334C30.1294 81.0121 27.8647 94.0754 27.3132 97.3373H72.4296C72.4296 97.3373 70.2362 80.1437 69.0384 79.1391H69.0385Z"/><path fill="#fff" d="M56.35 75.1344C56.35 75.1344 57.6986 75.4899 58.1133 76.147C58.5279 76.8041 57.0681 90.4525 57.0681 90.4525C57.0681 90.4525 55.0156 87.2504 53.9543 87.4942C52.8592 87.7457 51.4221 87.9284 51.4221 87.9284C51.4221 87.9284 54.1961 83.5782 54.989 80.9059C55.9691 77.6027 56.35 75.1344 56.35 75.1344Z"/><path fill="#fff" d="M46.2709 75.1343C46.2709 75.1343 44.9224 75.4899 44.5078 76.147C44.093 76.8041 45.5529 90.4525 45.5529 90.4525C45.5529 90.4525 47.7592 87.4396 48.8481 87.4396C49.9371 87.4396 51.1988 87.9282 51.1988 87.9282C51.1988 87.9282 48.4248 83.5781 47.6319 80.9059C46.6518 77.6027 46.2709 75.1343 46.2709 75.1343Z"/><path fill="#CA734F" d="M58.7763 53.8777C58.7763 56.3576 58.7655 61.7435 56.8673 64.8774C55.2801 67.4978 52.9061 69.5088 50.9336 69.5088C48.967 69.5088 46.5977 67.5098 45.0124 64.901C43.1059 61.7637 43.0908 56.3639 43.0908 53.8777C43.0908 49.3241 46.6021 47.3632 50.9336 47.3632C55.265 47.3632 58.7763 49.3241 58.7763 53.8777Z"/><path fill="#161541" d="M48.8091 57.6358C48.5963 57.6164 48.5854 57.5691 48.4227 57.4731C47.5446 56.935 46.4532 57.3516 45.5661 57.9221C45.474 57.2698 47.2764 56.3947 48.0113 56.5332C48.7461 56.6717 49.4526 57.4342 48.8091 57.6358Z"/><path fill="#161541" d="M52.8598 57.3508C53.2738 55.665 56.1343 56.6825 56.3057 57.8047C55.4836 57.3363 54.4291 56.8218 53.438 57.4324C53.3154 57.4682 52.8107 57.8455 52.8598 57.3508Z"/><path fill="#AD4328" d="M50.4892 57.7002C50.3866 58.5141 50.5084 59.3436 50.825 60.0993C50.9877 60.4876 51.2078 60.832 51.4335 61.1852C51.649 61.5224 51.8058 61.8857 51.5411 62.2425C51.2511 62.6332 50.7397 62.8094 50.3035 62.9766C50.1232 63.0457 50.2015 63.3389 50.3841 63.269C51.0795 63.0022 52.1991 62.5429 51.9625 61.5925C51.8569 61.169 51.5374 60.8256 51.3299 60.4506C51.1122 60.0574 50.9516 59.6355 50.8551 59.1964C50.7471 58.7047 50.7294 58.1993 50.7924 57.7002C50.8167 57.5072 50.5134 57.5089 50.4892 57.7002Z"/><path fill="#fff" d="M53.2727 63.7935C52.4057 63.5458 51.5139 64.0151 50.5912 63.9466C50.2564 63.9222 49.933 63.8252 49.6032 63.7867C49.2172 63.7428 48.7925 63.7842 48.4926 64.0837C48.4836 64.0832 48.9182 64.9192 49.372 65.1362C49.8664 65.382 50.4468 65.4397 51.0086 65.4382C51.5615 65.4388 52.1403 65.3791 52.6075 65.1041C52.894 64.9484 53.3312 64.0073 53.2727 63.7935Z"/><path fill="#161541" d="M55.2769 58.98C55.2769 59.3618 54.9673 59.6714 54.5856 59.6714C54.2036 59.6714 53.894 59.3618 53.894 58.98C53.894 58.5981 54.2036 58.2886 54.5856 58.2886C54.9673 58.2886 55.2769 58.5981 55.2769 58.98Z"/><path fill="#161541" d="M48.1968 58.98C48.1968 59.3618 47.8872 59.6714 47.5054 59.6714C47.1235 59.6714 46.814 59.3618 46.814 58.98C46.814 58.5981 47.1235 58.2886 47.5054 58.2886C47.8872 58.2886 48.1968 58.5981 48.1968 58.98Z"/><path fill="#CA734F" d="M60.8266 60.229C60.8266 61.3681 59.9032 62.2915 58.7641 62.2915C57.625 62.2915 56.7017 61.3681 56.7017 60.229C56.7017 59.09 57.625 58.1666 58.7641 58.1666C59.9032 58.1666 60.8266 59.09 60.8266 60.229Z"/><path fill="#AD4328" d="M59.3336 59.1744C59.6271 59.3585 59.8239 59.6881 59.833 60.0365C59.8422 60.395 59.657 60.7445 59.3586 60.9424C59.2026 61.0458 59.3489 61.299 59.5062 61.1946C59.8891 60.9409 60.1372 60.5002 60.1252 60.0365C60.1134 59.5834 59.863 59.1616 59.4812 58.922C59.3214 58.8218 59.1746 59.0746 59.3336 59.1744Z"/><path fill="#CA734F" d="M41.0156 60.229C41.0156 61.3681 41.939 62.2915 43.0781 62.2915C44.2172 62.2915 45.1406 61.3681 45.1406 60.229C45.1406 59.09 44.2172 58.1666 43.0781 58.1666C41.939 58.1666 41.0156 59.09 41.0156 60.229Z"/><path fill="#AD4328" d="M42.5095 59.1744C42.2161 59.3585 42.0193 59.6881 42.0102 60.0365C42.001 60.395 42.186 60.7445 42.4845 60.9424C42.6405 61.0458 42.4943 61.299 42.337 61.1946C41.9541 60.9409 41.7059 60.5002 41.7179 60.0365C41.7296 59.5834 41.9801 59.1616 42.362 58.922C42.5218 58.8218 42.6686 59.0746 42.5095 59.1744Z"/><path fill="#BA2E43" d="M42.8443 50.2228C44.5418 47.0728 47.7099 46.1463 50.2155 45.9326C53.5245 45.6504 58.6015 47.1501 59.2732 49.1799C59.9449 51.2097 58.7771 58.178 58.7771 58.178L54.5788 52.3489C53.196 53.747 47.9936 54.6037 44.5019 54.6037C44.3665 55.5292 44.8053 60.2405 44.5657 62.5283C44.3656 64.4391 44.0159 65.8581 44.2616 67.4174C44.4231 68.4431 45.8132 69.0925 45.6217 70.113C45.5528 70.48 45.3317 70.7987 45.2045 71.1498C44.8838 72.036 45.1918 73.0275 45.6337 73.8599C46.0757 74.6924 46.6558 75.4636 46.9306 76.3652C47.2054 77.2666 47.0876 78.3829 46.3356 78.951H43.0916C43.0916 78.951 41.5329 77.4515 41.735 76.063C41.9368 74.6745 43.0916 73.1084 41.735 70.37C40.8932 68.6708 40.3232 60.3078 41.0291 54.0579C41.2006 52.54 42.2996 51.2332 42.8443 50.2228Z"/><path fill="#CA734F" d="M24.9801 82.9859C25.9054 84.6 25.6423 87.8983 23.6426 89.0447C21.6428 90.1911 18.6637 88.7516 17.7384 87.1375C16.813 85.5234 18.292 84.3461 20.2917 83.1996C22.2915 82.0532 24.0548 81.3719 24.9801 82.9859Z"/><path fill="#CA734F" d="M25.1878 83.4445C25.1878 83.4445 23.8744 79.3772 23.3647 78.0739C22.8547 76.7704 21.864 77.7063 22.1435 79.1739C22.5644 81.3842 22.6681 82.6152 23.1913 83.1136C23.7144 83.6121 25.4679 84.305 25.1878 83.4445Z"/><path fill="#CA734F" d="M22.3471 82.4431C21.9191 81.7439 17.6867 74.8276 17.2992 74.6435C16.8875 74.4478 16.3573 74.7376 16.7985 75.5987C17.2396 76.4598 20.6425 82.3041 21.2338 83.3356C21.8252 84.3672 22.8468 83.2592 22.3471 82.4431Z"/><path fill="#CA734F" d="M20.9623 83.2099C20.512 82.4744 16.0631 75.1904 15.6518 75.0046C15.243 74.82 14.6607 75.1036 15.125 76.0095C15.5891 76.9155 19.1688 83.0636 19.7911 84.149C20.4132 85.2343 21.4879 84.0685 20.9623 83.2099Z"/><path fill="#CA734F" d="M19.739 84.3261C19.2886 83.5905 14.8178 76.3491 14.4284 76.1207C14.0364 75.8907 13.4375 76.2198 13.9017 77.1257C14.3659 78.0316 17.9456 84.1798 18.5677 85.265C19.1899 86.3503 20.2647 85.1846 19.739 84.3261Z"/><path fill="#CA734F" d="M18.4855 86.1138C18.1284 85.5303 14.5394 79.8434 14.2726 79.6045C13.8486 79.2246 13.4866 79.6831 13.8548 80.4017C14.223 81.1204 17.0629 85.9979 17.5564 86.8587C18.05 87.7197 18.9026 86.795 18.4855 86.1138Z"/><path fill="#97573C" d="M22.2215 87.2352C21.7922 85.8568 21.9192 84.3467 22.5864 83.0644C22.704 82.8385 22.363 82.6361 22.2449 82.8628C21.5298 84.237 21.3775 85.8581 21.8388 87.3389C21.9143 87.5817 22.2977 87.4798 22.2215 87.2352Z"/><path fill="#CA734F" d="M23.2066 97.3532H28.149C26.3303 92.912 24.7399 88.9592 24.4552 88.1466C23.7892 86.2468 20.5411 86.4785 21.0499 89.2946C21.4211 90.5645 22.2512 93.7132 23.2066 97.3532Z"/></g><defs><clipPath id="clip0_1_704"><rect width="250" height="250" fill="#fff"/></clipPath></defs></svg>